
<svg width="26" height="37" visibility="hidden">
    <path id="bunnyPath" style="fill:#191919; stroke:none;" d="M5 14L3.375 14.1026L2 14.3588L1.625 14.4151L0 15L0 17L1.625 17.5849L2 17.6412L3.375 17.8974L5 18L5 27L5.03395 31.9753L5.16049 33.8395L5.35802 34.841L5.41512 35.3287L6 37L8 37L8.58488 35.375L8.6412 35L8.89738 33.625L9 32L17 32L17.1026 33.625L17.3588 35L17.4151 35.375L18 37L20 37L20.5849 35.3287L20.642 34.841L20.8395 33.8395L20.966 31.9753L21 27L21 18L22.625 17.8974L24 17.6412L24.375 17.5849L26 17L26 15L24.375 14.4151L24 14.3588L22.625 14.1026L21 14L21.1821 12.3287L21.2716 11.841L21.5355 9.95525L21.6597 7.99537L21.517 6.00463L21.3511 5.01929L20.8511 3.14815L20.0123 1.60802L19.4159 1.04707L18.7045 0.662037L17.9082 0.464508L16.2647 0.637344L14.8681 1.4483L14.2323 2.15664L13 4L11.7677 2.15664L11.1319 1.4483L9.73534 0.637344L8.09182 0.464508L7.29552 0.662037L6.58411 1.04707L5.98765 1.60802L5.14892 3.14815L4.64892 5.01929L4.48302 6.00463L4.34028 7.99537L4.46451 9.95525L4.72839 11.841L4.8179 12.3287L5 14z"/>
</svg>